<?xml version="1.0" encoding="UTF-8" standalone="no"?><svg xmlns="http://www.w3.org/2000/svg" xmlns:xlink="http://www.w3.org/1999/xlink" clip-rule="evenodd" fill="#ed0202" fill-rule="evenodd" height="45.8" preserveAspectRatio="xMidYMid meet" stroke-linejoin="round" stroke-miterlimit="2" version="1" viewBox="2.1 10.4 62.5 45.8" width="62.5" zoomAndPan="magnify"><g id="change1_1"><path d="M64.583,20.772c0,-5.719 -4.636,-10.355 -10.355,-10.355c-11.098,-0 -30.691,-0 -41.789,-0c-5.719,-0 -10.356,4.636 -10.356,10.355c0,7.285 0,17.838 0,25.122c0,5.72 4.637,10.356 10.356,10.356c11.098,-0 30.691,-0 41.789,-0c5.719,-0 10.355,-4.636 10.355,-10.356l0,-25.122Zm-22.791,13.773l-7.038,6.562c-0.8,0.746 -2.041,0.746 -2.841,0l-6.553,-6.109l-15.409,16.565c0.761,0.334 1.603,0.52 2.488,0.52c-0,0 41.789,0 41.789,0c0.902,0 1.758,-0.193 2.531,-0.539l-14.967,-16.999Zm-34.815,-16.686l15.335,14.297l-15.39,16.545c-0.43,-0.842 -0.672,-1.796 -0.672,-2.806c0,-0.001 0,-25.123 0,-25.123c0,-1.053 0.263,-2.045 0.727,-2.913Zm52.713,0c0.464,0.868 0.727,1.86 0.727,2.913l-0,25.122c-0,0.993 -0.234,1.93 -0.649,2.762l-14.927,-16.953l14.849,-13.844Zm-3.098,-2.808l-23.259,21.684l-23.258,-21.684c0.729,-0.301 1.527,-0.468 2.364,-0.468c-0,0 41.789,0 41.789,0c0.837,0 1.636,0.167 2.364,0.468Z"/></g></svg>