<?xml version="1.0" encoding="UTF-8"?><svg xmlns="http://www.w3.org/2000/svg" xmlns:xlink="http://www.w3.org/1999/xlink" height="244.2" preserveAspectRatio="xMidYMid meet" version="1.0" viewBox="0.0 0.0 368.6 244.2" width="368.6" zoomAndPan="magnify"><defs><clipPath id="a"><path d="M 0 0 L 75 0 L 75 244.199219 L 0 244.199219 Z M 0 0"/></clipPath><clipPath id="b"><path d="M 294 0 L 368.640625 0 L 368.640625 244.199219 L 294 244.199219 Z M 294 0"/></clipPath></defs><g><g clip-path="url(#a)" id="change1_2"><path d="M 74.34375 13.71875 L 69.582031 13.71875 C 58.289062 13.71875 50.660156 15.878906 46.691406 20.15625 C 42.722656 24.433594 40.738281 33.253906 40.738281 46.664062 L 40.738281 78.019531 C 40.738281 92.484375 38.886719 102.804688 35.136719 108.980469 C 31.386719 115.199219 24.773438 119.652344 15.289062 122.429688 C 24.773438 125.078125 31.386719 129.488281 35.136719 135.707031 C 38.886719 141.882812 40.738281 152.199219 40.738281 166.710938 L 40.738281 197.890625 C 40.738281 211.253906 42.679688 220.074219 46.558594 224.351562 C 50.441406 228.585938 57.761719 230.746094 68.523438 230.746094 C 69.140625 230.746094 70.066406 230.703125 71.390625 230.617188 C 72.667969 230.527344 73.640625 230.484375 74.34375 230.484375 L 74.34375 244.199219 L 68.257812 244.199219 C 51.324219 244.199219 39.8125 241.066406 33.859375 234.851562 C 27.859375 228.632812 24.859375 215.839844 24.859375 196.613281 L 24.859375 165.035156 C 24.859375 151.761719 22.390625 142.410156 17.496094 136.984375 C 13.734375 132.816406 7.886719 130.238281 0 129.265625 L 0 115.199219 C 7.886719 114.230469 13.734375 111.648438 17.496094 107.480469 C 22.390625 102.011719 24.859375 92.617188 24.859375 79.34375 L 24.859375 47.941406 C 24.859375 28.757812 27.859375 15.921875 33.902344 9.574219 C 39.945312 3.175781 51.367188 0.00390625 68.257812 0.00390625 L 74.34375 0.00390625 L 74.34375 13.71875" fill="#212121"/></g><g clip-path="url(#b)" id="change1_1"><path d="M 294.296875 13.71875 L 299.058594 13.71875 C 310.351562 13.71875 317.980469 15.878906 321.949219 20.15625 C 325.917969 24.433594 327.902344 33.253906 327.902344 46.664062 L 327.902344 78.019531 C 327.902344 92.484375 329.753906 102.804688 333.503906 108.980469 C 337.253906 115.199219 343.867188 119.652344 353.351562 122.429688 C 343.867188 125.078125 337.253906 129.488281 333.503906 135.707031 C 329.753906 141.882812 327.902344 152.199219 327.902344 166.710938 L 327.902344 197.890625 C 327.902344 211.253906 325.964844 220.074219 322.082031 224.351562 C 318.199219 228.585938 310.878906 230.746094 300.117188 230.746094 C 299.5 230.746094 298.574219 230.703125 297.253906 230.617188 C 295.972656 230.527344 295.003906 230.484375 294.296875 230.484375 L 294.296875 244.199219 L 300.382812 244.199219 C 317.316406 244.199219 328.828125 241.066406 334.78125 234.851562 C 340.78125 228.632812 343.78125 215.839844 343.78125 196.613281 L 343.78125 165.035156 C 343.78125 151.761719 346.25 142.410156 351.144531 136.984375 C 354.90625 132.816406 360.753906 130.238281 368.640625 129.265625 L 368.640625 115.199219 C 360.753906 114.230469 354.90625 111.648438 351.144531 107.480469 C 346.25 102.011719 343.78125 92.617188 343.78125 79.34375 L 343.78125 47.941406 C 343.78125 28.757812 340.78125 15.921875 334.738281 9.574219 C 328.695312 3.175781 317.273438 0.00390625 300.382812 0.00390625 L 294.296875 0.00390625 L 294.296875 13.71875" fill="#212121"/></g><g id="change2_1"><path d="M 230.816406 167.359375 L 230.816406 155.535156 L 299.519531 155.535156 L 299.519531 167.359375 L 230.816406 167.359375" fill="#66bb6a"/></g><g id="change2_2"><path d="M 240.246094 129.523438 L 184.320312 167.359375 L 184.320312 151.023438 L 228.609375 121.960938 L 184.320312 93.148438 L 184.320312 76.84375 L 240.246094 114.214844 L 240.246094 129.523438" fill="#66bb6a"/></g><g id="change2_3"><path d="M 51.59375 129.523438 L 51.59375 114.214844 L 107.519531 76.84375 L 107.519531 93.148438 L 63.171875 121.960938 L 107.519531 151.023438 L 107.519531 167.359375 L 51.59375 129.523438" fill="#66bb6a"/></g><g id="change2_4"><path d="M 177.457031 46.117188 L 129.203125 202.042969 L 114.382812 198.085938 L 162.636719 42.160156 L 177.457031 46.117188" fill="#66bb6a"/></g></g></svg>